G04 #@! TF.GenerationSoftware,KiCad,Pcbnew,6.0.6-3a73a75311~116~ubuntu20.04.1*
G04 #@! TF.CreationDate,2022-07-12T00:27:28+03:00*
G04 #@! TF.ProjectId,weather_station_village,77656174-6865-4725-9f73-746174696f6e,rev?*
G04 #@! TF.SameCoordinates,Original*
G04 #@! TF.FileFunction,Soldermask,Top*
G04 #@! TF.FilePolarity,Negative*
%FSLAX46Y46*%
G04 Gerber Fmt 4.6, Leading zero omitted, Abs format (unit mm)*
G04 Created by KiCad (PCBNEW 6.0.6-3a73a75311~116~ubuntu20.04.1) date 2022-07-12 00:27:28*
%MOMM*%
%LPD*%
G01*
G04 APERTURE LIST*
%ADD10C,2.000000*%
%ADD11R,1.700000X1.700000*%
%ADD12O,1.700000X1.700000*%
%ADD13R,1.560000X1.560000*%
%ADD14C,1.560000*%
%ADD15C,1.400000*%
%ADD16O,1.400000X1.400000*%
%ADD17R,1.800000X1.800000*%
%ADD18C,1.800000*%
G04 APERTURE END LIST*
D10*
X-29000000Y17000000D03*
D11*
X-8250000Y-16750000D03*
D12*
X-5710000Y-16750000D03*
X-3170000Y-16750000D03*
X-630000Y-16750000D03*
X1910000Y-16750000D03*
X4450000Y-16750000D03*
D10*
X-29000000Y-17000000D03*
X21000000Y17000000D03*
D13*
X-23960000Y-12700000D03*
D14*
X-21420000Y-12700000D03*
X-18880000Y-12700000D03*
X-16340000Y-12700000D03*
X-13800000Y-12700000D03*
X-11260000Y-12700000D03*
X-8720000Y-12700000D03*
X-6180000Y-12700000D03*
X-3640000Y-12700000D03*
X-1100000Y-12700000D03*
X1440000Y-12700000D03*
X3980000Y-12700000D03*
X6520000Y-12700000D03*
X9060000Y-12700000D03*
X11600000Y-12700000D03*
X14140000Y-12700000D03*
X16680000Y-12700000D03*
X19220000Y-12700000D03*
X21760000Y-12700000D03*
X-23960000Y12700000D03*
X-21420000Y12700000D03*
X-18880000Y12700000D03*
X-16340000Y12700000D03*
X-13800000Y12700000D03*
X-11260000Y12700000D03*
X-8720000Y12700000D03*
X-6180000Y12700000D03*
X-3640000Y12700000D03*
X-1100000Y12700000D03*
X1440000Y12700000D03*
X3980000Y12700000D03*
X6520000Y12700000D03*
X9060000Y12700000D03*
X11600000Y12700000D03*
X14140000Y12700000D03*
X16680000Y12700000D03*
X19220000Y12700000D03*
X21760000Y12700000D03*
D10*
X21000000Y-17000000D03*
D15*
X2380000Y15500000D03*
D16*
X-2700000Y15500000D03*
D17*
X11680000Y18175000D03*
D18*
X11680000Y15635000D03*
D11*
X-21050000Y16400000D03*
D12*
X-18510000Y16400000D03*
X-15970000Y16400000D03*
X-13430000Y16400000D03*
X-10890000Y16400000D03*
X-8350000Y16400000D03*
D15*
X-2700000Y18000000D03*
D16*
X2380000Y18000000D03*
D17*
X7180000Y18175000D03*
D18*
X7180000Y15635000D03*
M02*
