G04 #@! TF.GenerationSoftware,KiCad,Pcbnew,6.0.6-3a73a75311~116~ubuntu20.04.1*
G04 #@! TF.CreationDate,2022-07-12T00:27:28+03:00*
G04 #@! TF.ProjectId,weather_station_village,77656174-6865-4725-9f73-746174696f6e,rev?*
G04 #@! TF.SameCoordinates,Original*
G04 #@! TF.FileFunction,Legend,Top*
G04 #@! TF.FilePolarity,Positive*
%FSLAX46Y46*%
G04 Gerber Fmt 4.6, Leading zero omitted, Abs format (unit mm)*
G04 Created by KiCad (PCBNEW 6.0.6-3a73a75311~116~ubuntu20.04.1) date 2022-07-12 00:27:28*
%MOMM*%
%LPD*%
G01*
G04 APERTURE LIST*
%ADD10C,0.125000*%
%ADD11C,0.250000*%
%ADD12C,0.150000*%
%ADD13C,0.015000*%
%ADD14C,0.120000*%
%ADD15C,2.000000*%
%ADD16R,1.700000X1.700000*%
%ADD17O,1.700000X1.700000*%
%ADD18R,1.560000X1.560000*%
%ADD19C,1.560000*%
%ADD20C,1.400000*%
%ADD21O,1.400000X1.400000*%
%ADD22R,1.800000X1.800000*%
%ADD23C,1.800000*%
G04 APERTURE END LIST*
D10*
X4300000Y-19480952D02*
X4276190Y-19528571D01*
X4276190Y-19600000D01*
X4300000Y-19671428D01*
X4347619Y-19719047D01*
X4395238Y-19742857D01*
X4490476Y-19766666D01*
X4561904Y-19766666D01*
X4657142Y-19742857D01*
X4704761Y-19719047D01*
X4752380Y-19671428D01*
X4776190Y-19600000D01*
X4776190Y-19552380D01*
X4752380Y-19480952D01*
X4728571Y-19457142D01*
X4561904Y-19457142D01*
X4561904Y-19552380D01*
X4776190Y-19242857D02*
X4276190Y-19242857D01*
X4776190Y-18957142D01*
X4276190Y-18957142D01*
X4776190Y-18719047D02*
X4276190Y-18719047D01*
X4276190Y-18600000D01*
X4300000Y-18528571D01*
X4347619Y-18480952D01*
X4395238Y-18457142D01*
X4490476Y-18433333D01*
X4561904Y-18433333D01*
X4657142Y-18457142D01*
X4704761Y-18480952D01*
X4752380Y-18528571D01*
X4776190Y-18600000D01*
X4776190Y-18719047D01*
D11*
X-25580952Y-14942380D02*
X-25342857Y-15942380D01*
X-25152380Y-15228095D01*
X-24961904Y-15942380D01*
X-24723809Y-14942380D01*
X-24342857Y-15418571D02*
X-24009523Y-15418571D01*
X-23866666Y-15942380D02*
X-24342857Y-15942380D01*
X-24342857Y-14942380D01*
X-23866666Y-14942380D01*
X-23485714Y-15656666D02*
X-23009523Y-15656666D01*
X-23580952Y-15942380D02*
X-23247619Y-14942380D01*
X-22914285Y-15942380D01*
X-22723809Y-14942380D02*
X-22152380Y-14942380D01*
X-22438095Y-15942380D02*
X-22438095Y-14942380D01*
X-21819047Y-15942380D02*
X-21819047Y-14942380D01*
X-21819047Y-15418571D02*
X-21247619Y-15418571D01*
X-21247619Y-15942380D02*
X-21247619Y-14942380D01*
X-20771428Y-15418571D02*
X-20438095Y-15418571D01*
X-20295238Y-15942380D02*
X-20771428Y-15942380D01*
X-20771428Y-14942380D01*
X-20295238Y-14942380D01*
X-19295238Y-15942380D02*
X-19628571Y-15466190D01*
X-19866666Y-15942380D02*
X-19866666Y-14942380D01*
X-19485714Y-14942380D01*
X-19390476Y-14990000D01*
X-19342857Y-15037619D01*
X-19295238Y-15132857D01*
X-19295238Y-15275714D01*
X-19342857Y-15370952D01*
X-19390476Y-15418571D01*
X-19485714Y-15466190D01*
X-19866666Y-15466190D01*
X-18152380Y-15894761D02*
X-18009523Y-15942380D01*
X-17771428Y-15942380D01*
X-17676190Y-15894761D01*
X-17628571Y-15847142D01*
X-17580952Y-15751904D01*
X-17580952Y-15656666D01*
X-17628571Y-15561428D01*
X-17676190Y-15513809D01*
X-17771428Y-15466190D01*
X-17961904Y-15418571D01*
X-18057142Y-15370952D01*
X-18104761Y-15323333D01*
X-18152380Y-15228095D01*
X-18152380Y-15132857D01*
X-18104761Y-15037619D01*
X-18057142Y-14990000D01*
X-17961904Y-14942380D01*
X-17723809Y-14942380D01*
X-17580952Y-14990000D01*
X-17295238Y-14942380D02*
X-16723809Y-14942380D01*
X-17009523Y-15942380D02*
X-17009523Y-14942380D01*
X-16438095Y-15656666D02*
X-15961904Y-15656666D01*
X-16533333Y-15942380D02*
X-16199999Y-14942380D01*
X-15866666Y-15942380D01*
X-15676190Y-14942380D02*
X-15104761Y-14942380D01*
X-15390476Y-15942380D02*
X-15390476Y-14942380D01*
X-14771428Y-15942380D02*
X-14771428Y-14942380D01*
X-14104761Y-14942380D02*
X-13914285Y-14942380D01*
X-13819047Y-14990000D01*
X-13723809Y-15085238D01*
X-13676190Y-15275714D01*
X-13676190Y-15609047D01*
X-13723809Y-15799523D01*
X-13819047Y-15894761D01*
X-13914285Y-15942380D01*
X-14104761Y-15942380D01*
X-14200000Y-15894761D01*
X-14295238Y-15799523D01*
X-14342857Y-15609047D01*
X-14342857Y-15275714D01*
X-14295238Y-15085238D01*
X-14200000Y-14990000D01*
X-14104761Y-14942380D01*
X-13247619Y-15942380D02*
X-13247619Y-14942380D01*
X-12676190Y-15942380D01*
X-12676190Y-14942380D01*
X-23604761Y-16552380D02*
X-23271428Y-17552380D01*
X-22938095Y-16552380D01*
X-22223809Y-17504761D02*
X-22319047Y-17552380D01*
X-22509523Y-17552380D01*
X-22604761Y-17504761D01*
X-22652380Y-17409523D01*
X-22652380Y-17028571D01*
X-22604761Y-16933333D01*
X-22509523Y-16885714D01*
X-22319047Y-16885714D01*
X-22223809Y-16933333D01*
X-22176190Y-17028571D01*
X-22176190Y-17123809D01*
X-22652380Y-17219047D01*
X-21747619Y-17552380D02*
X-21747619Y-16885714D01*
X-21747619Y-17076190D02*
X-21700000Y-16980952D01*
X-21652380Y-16933333D01*
X-21557142Y-16885714D01*
X-21461904Y-16885714D01*
X-21176190Y-17504761D02*
X-21080952Y-17552380D01*
X-20890476Y-17552380D01*
X-20795238Y-17504761D01*
X-20747619Y-17409523D01*
X-20747619Y-17361904D01*
X-20795238Y-17266666D01*
X-20890476Y-17219047D01*
X-21033333Y-17219047D01*
X-21128571Y-17171428D01*
X-21176190Y-17076190D01*
X-21176190Y-17028571D01*
X-21128571Y-16933333D01*
X-21033333Y-16885714D01*
X-20890476Y-16885714D01*
X-20795238Y-16933333D01*
X-20319047Y-17552380D02*
X-20319047Y-16885714D01*
X-20319047Y-16552380D02*
X-20366666Y-16600000D01*
X-20319047Y-16647619D01*
X-20271428Y-16600000D01*
X-20319047Y-16552380D01*
X-20319047Y-16647619D01*
X-19700000Y-17552380D02*
X-19795238Y-17504761D01*
X-19842857Y-17457142D01*
X-19890476Y-17361904D01*
X-19890476Y-17076190D01*
X-19842857Y-16980952D01*
X-19795238Y-16933333D01*
X-19700000Y-16885714D01*
X-19557142Y-16885714D01*
X-19461904Y-16933333D01*
X-19414285Y-16980952D01*
X-19366666Y-17076190D01*
X-19366666Y-17361904D01*
X-19414285Y-17457142D01*
X-19461904Y-17504761D01*
X-19557142Y-17552380D01*
X-19700000Y-17552380D01*
X-18938095Y-16885714D02*
X-18938095Y-17552380D01*
X-18938095Y-16980952D02*
X-18890476Y-16933333D01*
X-18795238Y-16885714D01*
X-18652380Y-16885714D01*
X-18557142Y-16933333D01*
X-18509523Y-17028571D01*
X-18509523Y-17552380D01*
X-16747619Y-17552380D02*
X-17319047Y-17552380D01*
X-17033333Y-17552380D02*
X-17033333Y-16552380D01*
X-17128571Y-16695238D01*
X-17223809Y-16790476D01*
X-17319047Y-16838095D01*
X-16319047Y-17457142D02*
X-16271428Y-17504761D01*
X-16319047Y-17552380D01*
X-16366666Y-17504761D01*
X-16319047Y-17457142D01*
X-16319047Y-17552380D01*
X-15652380Y-16552380D02*
X-15557142Y-16552380D01*
X-15461904Y-16600000D01*
X-15414285Y-16647619D01*
X-15366666Y-16742857D01*
X-15319047Y-16933333D01*
X-15319047Y-17171428D01*
X-15366666Y-17361904D01*
X-15414285Y-17457142D01*
X-15461904Y-17504761D01*
X-15557142Y-17552380D01*
X-15652380Y-17552380D01*
X-15747619Y-17504761D01*
X-15795238Y-17457142D01*
X-15842857Y-17361904D01*
X-15890476Y-17171428D01*
X-15890476Y-16933333D01*
X-15842857Y-16742857D01*
X-15795238Y-16647619D01*
X-15747619Y-16600000D01*
X-15652380Y-16552380D01*
X-14890476Y-17457142D02*
X-14842857Y-17504761D01*
X-14890476Y-17552380D01*
X-14938095Y-17504761D01*
X-14890476Y-17457142D01*
X-14890476Y-17552380D01*
X-14223809Y-16552380D02*
X-14128571Y-16552380D01*
X-14033333Y-16600000D01*
X-13985714Y-16647619D01*
X-13938095Y-16742857D01*
X-13890476Y-16933333D01*
X-13890476Y-17171428D01*
X-13938095Y-17361904D01*
X-13985714Y-17457142D01*
X-14033333Y-17504761D01*
X-14128571Y-17552380D01*
X-14223809Y-17552380D01*
X-14319047Y-17504761D01*
X-14366666Y-17457142D01*
X-14414285Y-17361904D01*
X-14461904Y-17171428D01*
X-14461904Y-16933333D01*
X-14414285Y-16742857D01*
X-14366666Y-16647619D01*
X-14319047Y-16600000D01*
X-14223809Y-16552380D01*
X-24271428Y-19114761D02*
X-24128571Y-19162380D01*
X-23890476Y-19162380D01*
X-23795238Y-19114761D01*
X-23747619Y-19067142D01*
X-23700000Y-18971904D01*
X-23700000Y-18876666D01*
X-23747619Y-18781428D01*
X-23795238Y-18733809D01*
X-23890476Y-18686190D01*
X-24080952Y-18638571D01*
X-24176190Y-18590952D01*
X-24223809Y-18543333D01*
X-24271428Y-18448095D01*
X-24271428Y-18352857D01*
X-24223809Y-18257619D01*
X-24176190Y-18210000D01*
X-24080952Y-18162380D01*
X-23842857Y-18162380D01*
X-23700000Y-18210000D01*
X-23271428Y-19162380D02*
X-23271428Y-18162380D01*
X-22700000Y-19162380D02*
X-23128571Y-18590952D01*
X-22700000Y-18162380D02*
X-23271428Y-18733809D01*
X-21747619Y-18210000D02*
X-21842857Y-18162380D01*
X-21985714Y-18162380D01*
X-22128571Y-18210000D01*
X-22223809Y-18305238D01*
X-22271428Y-18400476D01*
X-22319047Y-18590952D01*
X-22319047Y-18733809D01*
X-22271428Y-18924285D01*
X-22223809Y-19019523D01*
X-22128571Y-19114761D01*
X-21985714Y-19162380D01*
X-21890476Y-19162380D01*
X-21747619Y-19114761D01*
X-21700000Y-19067142D01*
X-21700000Y-18733809D01*
X-21890476Y-18733809D01*
X-20461904Y-19162380D02*
X-20271428Y-19162380D01*
X-20176190Y-19114761D01*
X-20128571Y-19067142D01*
X-20033333Y-18924285D01*
X-19985714Y-18733809D01*
X-19985714Y-18352857D01*
X-20033333Y-18257619D01*
X-20080952Y-18210000D01*
X-20176190Y-18162380D01*
X-20366666Y-18162380D01*
X-20461904Y-18210000D01*
X-20509523Y-18257619D01*
X-20557142Y-18352857D01*
X-20557142Y-18590952D01*
X-20509523Y-18686190D01*
X-20461904Y-18733809D01*
X-20366666Y-18781428D01*
X-20176190Y-18781428D01*
X-20080952Y-18733809D01*
X-20033333Y-18686190D01*
X-19985714Y-18590952D01*
X-18842857Y-18114761D02*
X-19700000Y-19400476D01*
X-18604761Y-18162380D02*
X-17938095Y-18162380D01*
X-18366666Y-19162380D01*
X-16842857Y-18114761D02*
X-17700000Y-19400476D01*
X-16557142Y-18257619D02*
X-16509523Y-18210000D01*
X-16414285Y-18162380D01*
X-16176190Y-18162380D01*
X-16080952Y-18210000D01*
X-16033333Y-18257619D01*
X-15985714Y-18352857D01*
X-15985714Y-18448095D01*
X-16033333Y-18590952D01*
X-16604761Y-19162380D01*
X-15985714Y-19162380D01*
X-15366666Y-18162380D02*
X-15271428Y-18162380D01*
X-15176190Y-18210000D01*
X-15128571Y-18257619D01*
X-15080952Y-18352857D01*
X-15033333Y-18543333D01*
X-15033333Y-18781428D01*
X-15080952Y-18971904D01*
X-15128571Y-19067142D01*
X-15176190Y-19114761D01*
X-15271428Y-19162380D01*
X-15366666Y-19162380D01*
X-15461904Y-19114761D01*
X-15509523Y-19067142D01*
X-15557142Y-18971904D01*
X-15604761Y-18781428D01*
X-15604761Y-18543333D01*
X-15557142Y-18352857D01*
X-15509523Y-18257619D01*
X-15461904Y-18210000D01*
X-15366666Y-18162380D01*
X-14652380Y-18257619D02*
X-14604761Y-18210000D01*
X-14509523Y-18162380D01*
X-14271428Y-18162380D01*
X-14176190Y-18210000D01*
X-14128571Y-18257619D01*
X-14080952Y-18352857D01*
X-14080952Y-18448095D01*
X-14128571Y-18590952D01*
X-14700000Y-19162380D01*
X-14080952Y-19162380D01*
X-13700000Y-18257619D02*
X-13652380Y-18210000D01*
X-13557142Y-18162380D01*
X-13319047Y-18162380D01*
X-13223809Y-18210000D01*
X-13176190Y-18257619D01*
X-13128571Y-18352857D01*
X-13128571Y-18448095D01*
X-13176190Y-18590952D01*
X-13747619Y-19162380D01*
X-13128571Y-19162380D01*
D10*
X-13247619Y18054761D02*
X-13223809Y18126190D01*
X-13223809Y18245238D01*
X-13247619Y18292857D01*
X-13271428Y18316666D01*
X-13319047Y18340476D01*
X-13366666Y18340476D01*
X-13414285Y18316666D01*
X-13438095Y18292857D01*
X-13461904Y18245238D01*
X-13485714Y18150000D01*
X-13509523Y18102380D01*
X-13533333Y18078571D01*
X-13580952Y18054761D01*
X-13628571Y18054761D01*
X-13676190Y18078571D01*
X-13700000Y18102380D01*
X-13723809Y18150000D01*
X-13723809Y18269047D01*
X-13700000Y18340476D01*
X-13271428Y18840476D02*
X-13247619Y18816666D01*
X-13223809Y18745238D01*
X-13223809Y18697619D01*
X-13247619Y18626190D01*
X-13295238Y18578571D01*
X-13342857Y18554761D01*
X-13438095Y18530952D01*
X-13509523Y18530952D01*
X-13604761Y18554761D01*
X-13652380Y18578571D01*
X-13700000Y18626190D01*
X-13723809Y18697619D01*
X-13723809Y18745238D01*
X-13700000Y18816666D01*
X-13676190Y18840476D01*
X-13223809Y19292857D02*
X-13223809Y19054761D01*
X-13723809Y19054761D01*
X-8723809Y-18945238D02*
X-8723809Y-19183333D01*
X-8485714Y-19207142D01*
X-8509523Y-19183333D01*
X-8533333Y-19135714D01*
X-8533333Y-19016666D01*
X-8509523Y-18969047D01*
X-8485714Y-18945238D01*
X-8438095Y-18921428D01*
X-8319047Y-18921428D01*
X-8271428Y-18945238D01*
X-8247619Y-18969047D01*
X-8223809Y-19016666D01*
X-8223809Y-19135714D01*
X-8247619Y-19183333D01*
X-8271428Y-19207142D01*
X-8723809Y-18778571D02*
X-8223809Y-18611904D01*
X-8723809Y-18445238D01*
X1776190Y-19254761D02*
X1776190Y-18945238D01*
X1966666Y-19111904D01*
X1966666Y-19040476D01*
X1990476Y-18992857D01*
X2014285Y-18969047D01*
X2061904Y-18945238D01*
X2180952Y-18945238D01*
X2228571Y-18969047D01*
X2252380Y-18992857D01*
X2276190Y-19040476D01*
X2276190Y-19183333D01*
X2252380Y-19230952D01*
X2228571Y-19254761D01*
X1823809Y-18754761D02*
X1800000Y-18730952D01*
X1776190Y-18683333D01*
X1776190Y-18564285D01*
X1800000Y-18516666D01*
X1823809Y-18492857D01*
X1871428Y-18469047D01*
X1919047Y-18469047D01*
X1990476Y-18492857D01*
X2276190Y-18778571D01*
X2276190Y-18469047D01*
X-723809Y-19254761D02*
X-723809Y-18945238D01*
X-533333Y-19111904D01*
X-533333Y-19040476D01*
X-509523Y-18992857D01*
X-485714Y-18969047D01*
X-438095Y-18945238D01*
X-319047Y-18945238D01*
X-271428Y-18969047D01*
X-247619Y-18992857D01*
X-223809Y-19040476D01*
X-223809Y-19183333D01*
X-247619Y-19230952D01*
X-271428Y-19254761D01*
X-723809Y-18492857D02*
X-723809Y-18730952D01*
X-485714Y-18754761D01*
X-509523Y-18730952D01*
X-533333Y-18683333D01*
X-533333Y-18564285D01*
X-509523Y-18516666D01*
X-485714Y-18492857D01*
X-438095Y-18469047D01*
X-319047Y-18469047D01*
X-271428Y-18492857D01*
X-247619Y-18516666D01*
X-223809Y-18564285D01*
X-223809Y-18683333D01*
X-247619Y-18730952D01*
X-271428Y-18754761D01*
X-21223809Y18030952D02*
X-21223809Y18340476D01*
X-21033333Y18173809D01*
X-21033333Y18245238D01*
X-21009523Y18292857D01*
X-20985714Y18316666D01*
X-20938095Y18340476D01*
X-20819047Y18340476D01*
X-20771428Y18316666D01*
X-20747619Y18292857D01*
X-20723809Y18245238D01*
X-20723809Y18102380D01*
X-20747619Y18054761D01*
X-20771428Y18030952D01*
X-21223809Y18483333D02*
X-20723809Y18650000D01*
X-21223809Y18816666D01*
X-21223809Y18935714D02*
X-21223809Y19245238D01*
X-21033333Y19078571D01*
X-21033333Y19150000D01*
X-21009523Y19197619D01*
X-20985714Y19221428D01*
X-20938095Y19245238D01*
X-20819047Y19245238D01*
X-20771428Y19221428D01*
X-20747619Y19197619D01*
X-20723809Y19150000D01*
X-20723809Y19007142D01*
X-20747619Y18959523D01*
X-20771428Y18935714D01*
X-6223809Y-19469047D02*
X-6223809Y-19159523D01*
X-6033333Y-19326190D01*
X-6033333Y-19254761D01*
X-6009523Y-19207142D01*
X-5985714Y-19183333D01*
X-5938095Y-19159523D01*
X-5819047Y-19159523D01*
X-5771428Y-19183333D01*
X-5747619Y-19207142D01*
X-5723809Y-19254761D01*
X-5723809Y-19397619D01*
X-5747619Y-19445238D01*
X-5771428Y-19469047D01*
X-6223809Y-19016666D02*
X-5723809Y-18850000D01*
X-6223809Y-18683333D01*
X-6223809Y-18564285D02*
X-6223809Y-18254761D01*
X-6033333Y-18421428D01*
X-6033333Y-18350000D01*
X-6009523Y-18302380D01*
X-5985714Y-18278571D01*
X-5938095Y-18254761D01*
X-5819047Y-18254761D01*
X-5771428Y-18278571D01*
X-5747619Y-18302380D01*
X-5723809Y-18350000D01*
X-5723809Y-18492857D01*
X-5747619Y-18540476D01*
X-5771428Y-18564285D01*
X-3223809Y-19254761D02*
X-3223809Y-18945238D01*
X-3033333Y-19111904D01*
X-3033333Y-19040476D01*
X-3009523Y-18992857D01*
X-2985714Y-18969047D01*
X-2938095Y-18945238D01*
X-2819047Y-18945238D01*
X-2771428Y-18969047D01*
X-2747619Y-18992857D01*
X-2723809Y-19040476D01*
X-2723809Y-19183333D01*
X-2747619Y-19230952D01*
X-2771428Y-19254761D01*
X-3057142Y-18516666D02*
X-2723809Y-18516666D01*
X-3247619Y-18635714D02*
X-2890476Y-18754761D01*
X-2890476Y-18445238D01*
X-18700000Y18269047D02*
X-18723809Y18221428D01*
X-18723809Y18150000D01*
X-18700000Y18078571D01*
X-18652380Y18030952D01*
X-18604761Y18007142D01*
X-18509523Y17983333D01*
X-18438095Y17983333D01*
X-18342857Y18007142D01*
X-18295238Y18030952D01*
X-18247619Y18078571D01*
X-18223809Y18150000D01*
X-18223809Y18197619D01*
X-18247619Y18269047D01*
X-18271428Y18292857D01*
X-18438095Y18292857D01*
X-18438095Y18197619D01*
X-18223809Y18507142D02*
X-18723809Y18507142D01*
X-18223809Y18792857D01*
X-18723809Y18792857D01*
X-18223809Y19030952D02*
X-18723809Y19030952D01*
X-18723809Y19150000D01*
X-18700000Y19221428D01*
X-18652380Y19269047D01*
X-18604761Y19292857D01*
X-18509523Y19316666D01*
X-18438095Y19316666D01*
X-18342857Y19292857D01*
X-18295238Y19269047D01*
X-18247619Y19221428D01*
X-18223809Y19150000D01*
X-18223809Y19030952D01*
X-15747619Y18042857D02*
X-15723809Y18114285D01*
X-15723809Y18233333D01*
X-15747619Y18280952D01*
X-15771428Y18304761D01*
X-15819047Y18328571D01*
X-15866666Y18328571D01*
X-15914285Y18304761D01*
X-15938095Y18280952D01*
X-15961904Y18233333D01*
X-15985714Y18138095D01*
X-16009523Y18090476D01*
X-16033333Y18066666D01*
X-16080952Y18042857D01*
X-16128571Y18042857D01*
X-16176190Y18066666D01*
X-16200000Y18090476D01*
X-16223809Y18138095D01*
X-16223809Y18257142D01*
X-16200000Y18328571D01*
X-15723809Y18542857D02*
X-16223809Y18542857D01*
X-16223809Y18661904D01*
X-16200000Y18733333D01*
X-16152380Y18780952D01*
X-16104761Y18804761D01*
X-16009523Y18828571D01*
X-15938095Y18828571D01*
X-15842857Y18804761D01*
X-15795238Y18780952D01*
X-15747619Y18733333D01*
X-15723809Y18661904D01*
X-15723809Y18542857D01*
X-15866666Y19019047D02*
X-15866666Y19257142D01*
X-15723809Y18971428D02*
X-16223809Y19138095D01*
X-15723809Y19304761D01*
D12*
X-11747619Y-17083333D02*
X-11033333Y-17083333D01*
X-10890476Y-17130952D01*
X-10795238Y-17226190D01*
X-10747619Y-17369047D01*
X-10747619Y-17464285D01*
X-11652380Y-16654761D02*
X-11700000Y-16607142D01*
X-11747619Y-16511904D01*
X-11747619Y-16273809D01*
X-11700000Y-16178571D01*
X-11652380Y-16130952D01*
X-11557142Y-16083333D01*
X-11461904Y-16083333D01*
X-11319047Y-16130952D01*
X-10747619Y-16702380D01*
X-10747619Y-16083333D01*
D13*
X-33193875Y-11591373D02*
X-32384039Y-11591373D01*
X-32288764Y-11543736D01*
X-32241126Y-11496099D01*
X-32193489Y-11400824D01*
X-32193489Y-11210274D01*
X-32241126Y-11114999D01*
X-32288764Y-11067362D01*
X-32384039Y-11019724D01*
X-33193875Y-11019724D01*
X-32193489Y-10019338D02*
X-32193489Y-10590987D01*
X-32193489Y-10305163D02*
X-33193875Y-10305163D01*
X-33050963Y-10400438D01*
X-32955688Y-10495713D01*
X-32908050Y-10590987D01*
D12*
X-5486666Y14947619D02*
X-5820000Y15423809D01*
X-6058095Y14947619D02*
X-6058095Y15947619D01*
X-5677142Y15947619D01*
X-5581904Y15900000D01*
X-5534285Y15852380D01*
X-5486666Y15757142D01*
X-5486666Y15614285D01*
X-5534285Y15519047D01*
X-5581904Y15471428D01*
X-5677142Y15423809D01*
X-6058095Y15423809D01*
X-5105714Y15852380D02*
X-5058095Y15900000D01*
X-4962857Y15947619D01*
X-4724761Y15947619D01*
X-4629523Y15900000D01*
X-4581904Y15852380D01*
X-4534285Y15757142D01*
X-4534285Y15661904D01*
X-4581904Y15519047D01*
X-5153333Y14947619D01*
X-4534285Y14947619D01*
X-24247619Y16066666D02*
X-23533333Y16066666D01*
X-23390476Y16019047D01*
X-23295238Y15923809D01*
X-23247619Y15780952D01*
X-23247619Y15685714D01*
X-23247619Y17066666D02*
X-23247619Y16495238D01*
X-23247619Y16780952D02*
X-24247619Y16780952D01*
X-24104761Y16685714D01*
X-24009523Y16590476D01*
X-23961904Y16495238D01*
X-5486666Y17547619D02*
X-5820000Y18023809D01*
X-6058095Y17547619D02*
X-6058095Y18547619D01*
X-5677142Y18547619D01*
X-5581904Y18500000D01*
X-5534285Y18452380D01*
X-5486666Y18357142D01*
X-5486666Y18214285D01*
X-5534285Y18119047D01*
X-5581904Y18071428D01*
X-5677142Y18023809D01*
X-6058095Y18023809D01*
X-4534285Y17547619D02*
X-5105714Y17547619D01*
X-4820000Y17547619D02*
X-4820000Y18547619D01*
X-4915238Y18404761D01*
X-5010476Y18309523D01*
X-5105714Y18261904D01*
D14*
X-6980000Y-18080000D02*
X-6980000Y-15420000D01*
X-6980000Y-15420000D02*
X5780000Y-15420000D01*
X5780000Y-18080000D02*
X5780000Y-15420000D01*
X-6980000Y-18080000D02*
X5780000Y-18080000D01*
X-8250000Y-18080000D02*
X-9580000Y-18080000D01*
X-9580000Y-18080000D02*
X-9580000Y-16750000D01*
X1760000Y14580000D02*
X-2080000Y14580000D01*
X1760000Y16420000D02*
X-2080000Y16420000D01*
X10600000Y18465000D02*
X10444000Y18465000D01*
X12916000Y18465000D02*
X12760000Y18465000D01*
X10600000Y17945961D02*
G75*
G03*
X10600163Y15863870I1080000J-1040961D01*
G01*
X10444484Y18465000D02*
G75*
G03*
X10601392Y15232665I1235516J-1560000D01*
G01*
X12759837Y15863870D02*
G75*
G03*
X12760000Y17945961I-1079837J1041130D01*
G01*
X12758608Y15232665D02*
G75*
G03*
X12915516Y18465000I-1078608J1672335D01*
G01*
X-7020000Y15070000D02*
X-7020000Y17730000D01*
X-19780000Y15070000D02*
X-7020000Y15070000D01*
X-19780000Y17730000D02*
X-7020000Y17730000D01*
X-22380000Y15070000D02*
X-22380000Y16400000D01*
X-21050000Y15070000D02*
X-22380000Y15070000D01*
X-19780000Y15070000D02*
X-19780000Y17730000D01*
X-2080000Y17080000D02*
X1760000Y17080000D01*
X-2080000Y18920000D02*
X1760000Y18920000D01*
X8416000Y18465000D02*
X8260000Y18465000D01*
X6100000Y18465000D02*
X5944000Y18465000D01*
X6100000Y17945961D02*
G75*
G03*
X6100163Y15863870I1080000J-1040961D01*
G01*
X8258608Y15232665D02*
G75*
G03*
X8415516Y18465000I-1078608J1672335D01*
G01*
X5944484Y18465000D02*
G75*
G03*
X6101392Y15232665I1235516J-1560000D01*
G01*
X8259837Y15863870D02*
G75*
G03*
X8260000Y17945961I-1079837J1041130D01*
G01*
%LPC*%
D15*
X-29000000Y17000000D03*
D16*
X-8250000Y-16750000D03*
D17*
X-5710000Y-16750000D03*
X-3170000Y-16750000D03*
X-630000Y-16750000D03*
X1910000Y-16750000D03*
X4450000Y-16750000D03*
D15*
X-29000000Y-17000000D03*
X21000000Y17000000D03*
D18*
X-23960000Y-12700000D03*
D19*
X-21420000Y-12700000D03*
X-18880000Y-12700000D03*
X-16340000Y-12700000D03*
X-13800000Y-12700000D03*
X-11260000Y-12700000D03*
X-8720000Y-12700000D03*
X-6180000Y-12700000D03*
X-3640000Y-12700000D03*
X-1100000Y-12700000D03*
X1440000Y-12700000D03*
X3980000Y-12700000D03*
X6520000Y-12700000D03*
X9060000Y-12700000D03*
X11600000Y-12700000D03*
X14140000Y-12700000D03*
X16680000Y-12700000D03*
X19220000Y-12700000D03*
X21760000Y-12700000D03*
X-23960000Y12700000D03*
X-21420000Y12700000D03*
X-18880000Y12700000D03*
X-16340000Y12700000D03*
X-13800000Y12700000D03*
X-11260000Y12700000D03*
X-8720000Y12700000D03*
X-6180000Y12700000D03*
X-3640000Y12700000D03*
X-1100000Y12700000D03*
X1440000Y12700000D03*
X3980000Y12700000D03*
X6520000Y12700000D03*
X9060000Y12700000D03*
X11600000Y12700000D03*
X14140000Y12700000D03*
X16680000Y12700000D03*
X19220000Y12700000D03*
X21760000Y12700000D03*
D15*
X21000000Y-17000000D03*
D20*
X2380000Y15500000D03*
D21*
X-2700000Y15500000D03*
D22*
X11680000Y18175000D03*
D23*
X11680000Y15635000D03*
D16*
X-21050000Y16400000D03*
D17*
X-18510000Y16400000D03*
X-15970000Y16400000D03*
X-13430000Y16400000D03*
X-10890000Y16400000D03*
X-8350000Y16400000D03*
D20*
X-2700000Y18000000D03*
D21*
X2380000Y18000000D03*
D22*
X7180000Y18175000D03*
D23*
X7180000Y15635000D03*
M02*
