M48
; DRILL file {KiCad 6.0.6-3a73a75311~116~ubuntu20.04.1} date Τρι 12 Ιουλ 2022 12:27:23 πμ EEST
; FORMAT={-:-/ absolute / inch / decimal}
; #@! TF.CreationDate,2022-07-12T00:27:23+03:00
; #@! TF.GenerationSoftware,Kicad,Pcbnew,6.0.6-3a73a75311~116~ubuntu20.04.1
; #@! TF.FileFunction,Plated,1,2,PTH
FMAT,2
INCH
; #@! TA.AperFunction,Plated,PTH,ViaDrill
T1C0.0157
; #@! TA.AperFunction,Plated,PTH,ComponentDrill
T2C0.0276
; #@! TA.AperFunction,Plated,PTH,ComponentDrill
T3C0.0354
; #@! TA.AperFunction,Plated,PTH,ComponentDrill
T4C0.0394
; #@! TA.AperFunction,Plated,PTH,ComponentDrill
T5C0.0409
%
G90
G05
T1
X-1.189Y0.4685
X-1.189Y0.2717
X-1.189Y0.0748
X-1.189Y-0.122
X-1.189Y-0.3189
X-1.189Y-0.5157
X-1.0118Y0.7441
X-0.9921Y0.4685
X-0.8937Y0.2717
X-0.8937Y-0.122
X-0.8937Y-0.7126
X-0.7953Y0.7441
X-0.6969Y0.3701
X-0.6969Y0.0748
X-0.6969Y-0.3189
X-0.6969Y-0.7126
X-0.5984Y0.7441
X-0.5Y0.2717
X-0.5Y-0.122
X-0.5Y-0.7126
X-0.4016Y0.7441
X-0.3031Y0.3701
X-0.3031Y0.0748
X-0.3031Y-0.3189
X-0.2047Y0.7441
X-0.1063Y0.2717
X-0.1063Y-0.122
X0.0906Y0.3701
X0.0906Y0.0748
X0.0906Y-0.3189
X0.2874Y0.2717
X0.2874Y-0.122
X0.2874Y-0.7126
X0.4843Y0.3701
X0.4843Y0.0748
X0.4843Y-0.3189
X0.4843Y-0.7126
X0.6024Y0.7441
X0.6811Y0.2717
X0.6811Y-0.122
X0.6811Y-0.7126
X0.878Y0.0748
X0.878Y-0.3189
T2
X-0.1063Y0.7087
X-0.1063Y0.6102
X0.0937Y0.7087
X0.0937Y0.6102
T3
X0.2827Y0.7156
X0.2827Y0.6156
X0.4598Y0.7156
X0.4598Y0.6156
T4
X-0.8287Y0.6457
X-0.7287Y0.6457
X-0.6287Y0.6457
X-0.5287Y0.6457
X-0.4287Y0.6457
X-0.3287Y0.6457
X-0.3248Y-0.6594
X-0.2248Y-0.6594
X-0.1248Y-0.6594
X-0.0248Y-0.6594
X0.0752Y-0.6594
X0.1752Y-0.6594
T5
X-0.9433Y0.5
X-0.9433Y-0.5
X-0.8433Y0.5
X-0.8433Y-0.5
X-0.7433Y0.5
X-0.7433Y-0.5
X-0.6433Y0.5
X-0.6433Y-0.5
X-0.5433Y0.5
X-0.5433Y-0.5
X-0.4433Y0.5
X-0.4433Y-0.5
X-0.3433Y0.5
X-0.3433Y-0.5
X-0.2433Y0.5
X-0.2433Y-0.5
X-0.1433Y0.5
X-0.1433Y-0.5
X-0.0433Y0.5
X-0.0433Y-0.5
X0.0567Y0.5
X0.0567Y-0.5
X0.1567Y0.5
X0.1567Y-0.5
X0.2567Y0.5
X0.2567Y-0.5
X0.3567Y0.5
X0.3567Y-0.5
X0.4567Y0.5
X0.4567Y-0.5
X0.5567Y0.5
X0.5567Y-0.5
X0.6567Y0.5
X0.6567Y-0.5
X0.7567Y0.5
X0.7567Y-0.5
X0.8567Y0.5
X0.8567Y-0.5
T0
M30
